<svg width="181" height="57" viewBox="0 0 181 57" fill="none" xmlns="http://www.w3.org/2000/svg">
<path d="M19.5156 38.0391C18.6953 38.0391 17.9805 37.9531 17.3711 37.7812V34.7578C17.9961 34.9141 18.5664 34.9922 19.082 34.9922C19.8789 34.9922 20.4492 34.7422 20.793 34.2422C21.1367 33.75 21.3086 32.9766 21.3086 31.9219V15.8672H24.9414V31.8984C24.9414 33.8984 24.4844 35.4219 23.5703 36.4688C22.6562 37.5156 21.3047 38.0391 19.5156 38.0391ZM28.8203 16.5117C28.8203 15.3477 29.4688 14.7656 30.7656 14.7656C32.0625 14.7656 32.7109 15.3477 32.7109 16.5117C32.7109 17.0664 32.5469 17.5 32.2188 17.8125C31.8984 18.1172 31.4141 18.2695 30.7656 18.2695C29.4688 18.2695 28.8203 17.6836 28.8203 16.5117ZM32.5469 33H28.9727V19.8984H32.5469V33ZM48.4023 33H44.8281V25.3477C44.8281 24.4023 44.6602 23.6953 44.3242 23.2266C43.9883 22.75 43.4531 22.5117 42.7188 22.5117C41.7188 22.5117 40.9961 22.8477 40.5508 23.5195C40.1055 24.1836 39.8828 25.2891 39.8828 26.8359V33H36.3086V19.8984H39.0391L39.5195 21.5742H39.7188C40.1172 20.9414 40.6641 20.4648 41.3594 20.1445C42.0625 19.8164 42.8594 19.6523 43.75 19.6523C45.2734 19.6523 46.4297 20.0664 47.2188 20.8945C48.0078 21.7148 48.4023 22.9023 48.4023 24.457V33ZM63.4844 19.8984V21.7148L61.4336 22.2422C61.8086 22.8281 61.9961 23.4844 61.9961 24.2109C61.9961 25.6172 61.5039 26.7148 60.5195 27.5039C59.543 28.2852 58.1836 28.6758 56.4414 28.6758L55.7969 28.6406L55.2695 28.582C54.9023 28.8633 54.7188 29.1758 54.7188 29.5195C54.7188 30.0352 55.375 30.293 56.6875 30.293H58.9141C60.3516 30.293 61.4453 30.6016 62.1953 31.2188C62.9531 31.8359 63.332 32.7422 63.332 33.9375C63.332 35.4688 62.6914 36.6562 61.4102 37.5C60.1367 38.3438 58.3047 38.7656 55.9141 38.7656C54.0859 38.7656 52.6875 38.4453 51.7188 37.8047C50.7578 37.1719 50.2773 36.2812 50.2773 35.1328C50.2773 34.3438 50.5234 33.6836 51.0156 33.1523C51.5078 32.6211 52.2305 32.2422 53.1836 32.0156C52.8164 31.8594 52.4961 31.6055 52.2227 31.2539C51.9492 30.8945 51.8125 30.5156 51.8125 30.1172C51.8125 29.6172 51.957 29.2031 52.2461 28.875C52.5352 28.5391 52.9531 28.2109 53.5 27.8906C52.8125 27.5938 52.2656 27.1172 51.8594 26.4609C51.4609 25.8047 51.2617 25.0312 51.2617 24.1406C51.2617 22.7109 51.7266 21.6055 52.6562 20.8242C53.5859 20.043 54.9141 19.6523 56.6406 19.6523C57.0078 19.6523 57.4414 19.6875 57.9414 19.7578C58.4492 19.8203 58.7734 19.8672 58.9141 19.8984H63.4844ZM53.3711 34.8516C53.3711 35.3438 53.6055 35.7305 54.0742 36.0117C54.5508 36.293 55.2148 36.4336 56.0664 36.4336C57.3477 36.4336 58.3516 36.2578 59.0781 35.9062C59.8047 35.5547 60.168 35.0742 60.168 34.4648C60.168 33.9727 59.9531 33.6328 59.5234 33.4453C59.0938 33.2578 58.4297 33.1641 57.5312 33.1641H55.6797C55.0234 33.1641 54.4727 33.3164 54.0273 33.6211C53.5898 33.9336 53.3711 34.3438 53.3711 34.8516ZM54.6719 24.1875C54.6719 24.8984 54.832 25.4609 55.1523 25.875C55.4805 26.2891 55.9766 26.4961 56.6406 26.4961C57.3125 26.4961 57.8047 26.2891 58.1172 25.875C58.4297 25.4609 58.5859 24.8984 58.5859 24.1875C58.5859 22.6094 57.9375 21.8203 56.6406 21.8203C55.3281 21.8203 54.6719 22.6094 54.6719 24.1875ZM69.2266 33H65.6523V14.7656H69.2266V33ZM78.4141 22.1953C77.6562 22.1953 77.0625 22.4375 76.6328 22.9219C76.2031 23.3984 75.957 24.0781 75.8945 24.9609H80.9102C80.8945 24.0781 80.6641 23.3984 80.2188 22.9219C79.7734 22.4375 79.1719 22.1953 78.4141 22.1953ZM78.918 33.2344C76.8086 33.2344 75.1602 32.6523 73.9727 31.4883C72.7852 30.3242 72.1914 28.6758 72.1914 26.543C72.1914 24.3477 72.7383 22.6523 73.832 21.457C74.9336 20.2539 76.4531 19.6523 78.3906 19.6523C80.2422 19.6523 81.6836 20.1797 82.7148 21.2344C83.7461 22.2891 84.2617 23.7461 84.2617 25.6055V27.3398H75.8125C75.8516 28.3555 76.1523 29.1484 76.7148 29.7188C77.2773 30.2891 78.0664 30.5742 79.082 30.5742C79.8711 30.5742 80.6172 30.4922 81.3203 30.3281C82.0234 30.1641 82.7578 29.9023 83.5234 29.543V32.3086C82.8984 32.6211 82.2305 32.8516 81.5195 33C80.8086 33.1562 79.9414 33.2344 78.918 33.2344ZM93.6836 15.8672H99.0156C101.445 15.8672 103.207 16.2148 104.301 16.9102C105.402 17.5977 105.953 18.6953 105.953 20.2031C105.953 21.2266 105.711 22.0664 105.227 22.7227C104.75 23.3789 104.113 23.7734 103.316 23.9062V24.0234C104.402 24.2656 105.184 24.7188 105.66 25.3828C106.145 26.0469 106.387 26.9297 106.387 28.0312C106.387 29.5938 105.82 30.8125 104.688 31.6875C103.562 32.5625 102.031 33 100.094 33H93.6836V15.8672ZM97.3164 22.6523H99.4258C100.41 22.6523 101.121 22.5 101.559 22.1953C102.004 21.8906 102.227 21.3867 102.227 20.6836C102.227 20.0273 101.984 19.5586 101.5 19.2773C101.023 18.9883 100.266 18.8438 99.2266 18.8438H97.3164V22.6523ZM97.3164 25.5352V30H99.6836C100.684 30 101.422 29.8086 101.898 29.4258C102.375 29.043 102.613 28.457 102.613 27.668C102.613 26.2461 101.598 25.5352 99.5664 25.5352H97.3164ZM114.953 22.1953C114.195 22.1953 113.602 22.4375 113.172 22.9219C112.742 23.3984 112.496 24.0781 112.434 24.9609H117.449C117.434 24.0781 117.203 23.3984 116.758 22.9219C116.312 22.4375 115.711 22.1953 114.953 22.1953ZM115.457 33.2344C113.348 33.2344 111.699 32.6523 110.512 31.4883C109.324 30.3242 108.73 28.6758 108.73 26.543C108.73 24.3477 109.277 22.6523 110.371 21.457C111.473 20.2539 112.992 19.6523 114.93 19.6523C116.781 19.6523 118.223 20.1797 119.254 21.2344C120.285 22.2891 120.801 23.7461 120.801 25.6055V27.3398H112.352C112.391 28.3555 112.691 29.1484 113.254 29.7188C113.816 30.2891 114.605 30.5742 115.621 30.5742C116.41 30.5742 117.156 30.4922 117.859 30.3281C118.562 30.1641 119.297 29.9023 120.062 29.543V32.3086C119.438 32.6211 118.77 32.8516 118.059 33C117.348 33.1562 116.48 33.2344 115.457 33.2344ZM127.281 33H123.707V14.7656H127.281V33ZM134.617 33H131.043V14.7656H134.617V33ZM147.52 29.1094C147.52 30.4531 147.051 31.4766 146.113 32.1797C145.184 32.8828 143.789 33.2344 141.93 33.2344C140.977 33.2344 140.164 33.168 139.492 33.0352C138.82 32.9102 138.191 32.7227 137.605 32.4727V29.5195C138.27 29.832 139.016 30.0938 139.844 30.3047C140.68 30.5156 141.414 30.6211 142.047 30.6211C143.344 30.6211 143.992 30.2461 143.992 29.4961C143.992 29.2148 143.906 28.9883 143.734 28.8164C143.562 28.6367 143.266 28.4375 142.844 28.2188C142.422 27.9922 141.859 27.7305 141.156 27.4336C140.148 27.0117 139.406 26.6211 138.93 26.2617C138.461 25.9023 138.117 25.4922 137.898 25.0312C137.688 24.5625 137.582 23.9883 137.582 23.3086C137.582 22.1445 138.031 21.2461 138.93 20.6133C139.836 19.9727 141.117 19.6523 142.773 19.6523C144.352 19.6523 145.887 19.9961 147.379 20.6836L146.301 23.2617C145.645 22.9805 145.031 22.75 144.461 22.5703C143.891 22.3906 143.309 22.3008 142.715 22.3008C141.66 22.3008 141.133 22.5859 141.133 23.1562C141.133 23.4766 141.301 23.7539 141.637 23.9883C141.98 24.2227 142.727 24.5703 143.875 25.0312C144.898 25.4453 145.648 25.832 146.125 26.1914C146.602 26.5508 146.953 26.9648 147.18 27.4336C147.406 27.9023 147.52 28.4609 147.52 29.1094Z" fill="white"/>
<g filter="url(#filter0_d_27_202)">
<path d="M24.0061 2.00507L6.01241 2L6 46.1207L23.9937 46.1258" stroke="white" stroke-width="4"/>
</g>
<path d="M30.5493 10.787L30.5493 2.00693L22.3703 2.00463" stroke="white" stroke-width="4"/>
<path d="M30.5369 36.787L30.5369 46.1277L22.3579 46.1254" stroke="white" stroke-width="4"/>
<defs>
<filter id="filter0_d_27_202" x="-0.00056076" y="-0.000549316" width="28.0073" height="56.1264" filterUnits="userSpaceOnUse" color-interpolation-filters="sRGB">
<feFlood flood-opacity="0" result="BackgroundImageFix"/>
<feColorMatrix in="SourceAlpha" type="matrix" values="0 0 0 0 0 0 0 0 0 0 0 0 0 0 0 0 0 0 127 0" result="hardAlpha"/>
<feOffset dy="4"/>
<feGaussianBlur stdDeviation="2"/>
<feComposite in2="hardAlpha" operator="out"/>
<feColorMatrix type="matrix" values="0 0 0 0 0 0 0 0 0 0 0 0 0 0 0 0 0 0 0.25 0"/>
<feBlend mode="normal" in2="BackgroundImageFix" result="effect1_dropShadow_27_202"/>
<feBlend mode="normal" in="SourceGraphic" in2="effect1_dropShadow_27_202" result="shape"/>
</filter>
</defs>
</svg>
