<svg width="183" height="56" viewBox="0 0 183 56" fill="none" xmlns="http://www.w3.org/2000/svg">
<g filter="url(#filter0_d_143_2)">
<path d="M16.0703 42.2988C15.0449 42.2988 14.1514 42.1914 13.3896 41.9766V38.1973C14.1709 38.3926 14.8838 38.4902 15.5283 38.4902C16.5244 38.4902 17.2373 38.1777 17.667 37.5527C18.0967 36.9375 18.3115 35.9707 18.3115 34.6523V14.584H22.8525V34.623C22.8525 37.123 22.2812 39.0273 21.1387 40.3359C19.9961 41.6445 18.3066 42.2988 16.0703 42.2988ZM27.2705 19.5117C27.2705 18.3477 27.9189 17.7656 29.2158 17.7656C30.5127 17.7656 31.1611 18.3477 31.1611 19.5117C31.1611 20.0664 30.9971 20.5 30.6689 20.8125C30.3486 21.1172 29.8643 21.2695 29.2158 21.2695C27.9189 21.2695 27.2705 20.6836 27.2705 19.5117ZM30.9971 36H27.4229V22.8984H30.9971V36ZM50.3447 36H45.877V26.4346C45.877 25.2529 45.667 24.3691 45.2471 23.7832C44.8271 23.1875 44.1582 22.8896 43.2402 22.8896C41.9902 22.8896 41.0869 23.3096 40.5303 24.1494C39.9736 24.9795 39.6953 26.3613 39.6953 28.2949V36H35.2275V19.623H38.6406L39.2412 21.7178H39.4902C39.9883 20.9268 40.6719 20.3311 41.541 19.9307C42.4199 19.5205 43.416 19.3154 44.5293 19.3154C46.4336 19.3154 47.8789 19.833 48.8652 20.8682C49.8516 21.8936 50.3447 23.3779 50.3447 25.3213V36ZM69.1973 19.623V21.8936L66.6338 22.5527C67.1025 23.2852 67.3369 24.1055 67.3369 25.0137C67.3369 26.7715 66.7217 28.1436 65.4912 29.1299C64.2705 30.1064 62.5713 30.5947 60.3936 30.5947L59.5879 30.5508L58.9287 30.4775C58.4697 30.8291 58.2402 31.2197 58.2402 31.6494C58.2402 32.2939 59.0605 32.6162 60.7012 32.6162H63.4844C65.2812 32.6162 66.6484 33.002 67.5859 33.7734C68.5332 34.5449 69.0068 35.6777 69.0068 37.1719C69.0068 39.0859 68.2061 40.5703 66.6045 41.625C65.0127 42.6797 62.7227 43.207 59.7344 43.207C57.4492 43.207 55.7012 42.8066 54.4902 42.0059C53.2891 41.2148 52.6885 40.1016 52.6885 38.666C52.6885 37.6797 52.9961 36.8545 53.6113 36.1904C54.2266 35.5264 55.1299 35.0527 56.3213 34.7695C55.8623 34.5742 55.4619 34.2568 55.1201 33.8174C54.7783 33.3682 54.6074 32.8945 54.6074 32.3965C54.6074 31.7715 54.7881 31.2539 55.1494 30.8438C55.5107 30.4238 56.0332 30.0137 56.7168 29.6133C55.8574 29.2422 55.1738 28.6465 54.666 27.8262C54.168 27.0059 53.9189 26.0391 53.9189 24.9258C53.9189 23.1387 54.5 21.7568 55.6621 20.7803C56.8242 19.8037 58.4844 19.3154 60.6426 19.3154C61.1016 19.3154 61.6436 19.3594 62.2686 19.4473C62.9033 19.5254 63.3086 19.584 63.4844 19.623H69.1973ZM56.5557 38.3145C56.5557 38.9297 56.8486 39.4131 57.4346 39.7646C58.0303 40.1162 58.8604 40.292 59.9248 40.292C61.5264 40.292 62.7812 40.0723 63.6895 39.6328C64.5977 39.1934 65.0518 38.5928 65.0518 37.8311C65.0518 37.2158 64.7832 36.791 64.2461 36.5566C63.709 36.3223 62.8789 36.2051 61.7559 36.2051H59.4414C58.6211 36.2051 57.9326 36.3955 57.376 36.7764C56.8291 37.167 56.5557 37.6797 56.5557 38.3145ZM58.1816 24.9844C58.1816 25.873 58.3818 26.5762 58.7822 27.0938C59.1924 27.6113 59.8125 27.8701 60.6426 27.8701C61.4824 27.8701 62.0977 27.6113 62.4883 27.0938C62.8789 26.5762 63.0742 25.873 63.0742 24.9844C63.0742 23.0117 62.2637 22.0254 60.6426 22.0254C59.002 22.0254 58.1816 23.0117 58.1816 24.9844ZM76.375 36H71.9072V13.207H76.375V36ZM87.8594 22.4941C86.9121 22.4941 86.1699 22.7969 85.6328 23.4023C85.0957 23.998 84.7881 24.8477 84.71 25.9512H90.9795C90.96 24.8477 90.6719 23.998 90.1152 23.4023C89.5586 22.7969 88.8066 22.4941 87.8594 22.4941ZM88.4893 36.293C85.8525 36.293 83.792 35.5654 82.3076 34.1104C80.8232 32.6553 80.0811 30.5947 80.0811 27.9287C80.0811 25.1846 80.7646 23.0654 82.1318 21.5713C83.5088 20.0674 85.4082 19.3154 87.8301 19.3154C90.1445 19.3154 91.9463 19.9746 93.2354 21.293C94.5244 22.6113 95.1689 24.4326 95.1689 26.7568V28.9248H84.6074C84.6562 30.1943 85.0322 31.1855 85.7354 31.8984C86.4385 32.6113 87.4248 32.9678 88.6943 32.9678C89.6807 32.9678 90.6133 32.8652 91.4922 32.6602C92.3711 32.4551 93.2891 32.1279 94.2461 31.6787V35.1357C93.4648 35.5264 92.6299 35.8145 91.7412 36C90.8525 36.1953 89.7686 36.293 88.4893 36.293ZM106.946 14.584H113.611C116.648 14.584 118.851 15.0186 120.218 15.8877C121.595 16.7471 122.283 18.1191 122.283 20.0039C122.283 21.2832 121.98 22.333 121.375 23.1533C120.779 23.9736 119.983 24.4668 118.987 24.6328V24.7793C120.345 25.082 121.321 25.6484 121.917 26.4785C122.522 27.3086 122.825 28.4121 122.825 29.7891C122.825 31.7422 122.117 33.2656 120.701 34.3594C119.295 35.4531 117.381 36 114.959 36H106.946V14.584ZM111.487 23.0654H114.124C115.354 23.0654 116.243 22.875 116.79 22.4941C117.347 22.1133 117.625 21.4834 117.625 20.6045C117.625 19.7842 117.322 19.1982 116.717 18.8467C116.121 18.4854 115.174 18.3047 113.875 18.3047H111.487V23.0654ZM111.487 26.6689V32.25H114.446C115.696 32.25 116.619 32.0107 117.215 31.5322C117.811 31.0537 118.108 30.3213 118.108 29.335C118.108 27.5576 116.839 26.6689 114.3 26.6689H111.487ZM133.533 22.4941C132.586 22.4941 131.844 22.7969 131.307 23.4023C130.77 23.998 130.462 24.8477 130.384 25.9512H136.653C136.634 24.8477 136.346 23.998 135.789 23.4023C135.232 22.7969 134.48 22.4941 133.533 22.4941ZM134.163 36.293C131.526 36.293 129.466 35.5654 127.981 34.1104C126.497 32.6553 125.755 30.5947 125.755 27.9287C125.755 25.1846 126.438 23.0654 127.806 21.5713C129.183 20.0674 131.082 19.3154 133.504 19.3154C135.818 19.3154 137.62 19.9746 138.909 21.293C140.198 22.6113 140.843 24.4326 140.843 26.7568V28.9248H130.281C130.33 30.1943 130.706 31.1855 131.409 31.8984C132.112 32.6113 133.099 32.9678 134.368 32.9678C135.354 32.9678 136.287 32.8652 137.166 32.6602C138.045 32.4551 138.963 32.1279 139.92 31.6787V35.1357C139.139 35.5264 138.304 35.8145 137.415 36C136.526 36.1953 135.442 36.293 134.163 36.293ZM148.943 36H144.476V13.207H148.943V36ZM158.113 36H153.646V13.207H158.113V36ZM174.241 31.1367C174.241 32.8164 173.655 34.0957 172.483 34.9746C171.321 35.8535 169.578 36.293 167.254 36.293C166.062 36.293 165.047 36.21 164.207 36.0439C163.367 35.8877 162.581 35.6533 161.849 35.3408V31.6494C162.679 32.04 163.611 32.3672 164.646 32.6309C165.691 32.8945 166.609 33.0264 167.4 33.0264C169.021 33.0264 169.832 32.5576 169.832 31.6201C169.832 31.2686 169.725 30.9854 169.51 30.7705C169.295 30.5459 168.924 30.2969 168.396 30.0234C167.869 29.7402 167.166 29.4131 166.287 29.042C165.027 28.5146 164.1 28.0264 163.504 27.5771C162.918 27.1279 162.488 26.6152 162.215 26.0391C161.951 25.4531 161.819 24.7354 161.819 23.8857C161.819 22.4307 162.381 21.3076 163.504 20.5166C164.637 19.7158 166.238 19.3154 168.309 19.3154C170.281 19.3154 172.2 19.7451 174.065 20.6045L172.718 23.8271C171.897 23.4756 171.131 23.1875 170.418 22.9629C169.705 22.7383 168.978 22.626 168.235 22.626C166.917 22.626 166.258 22.9824 166.258 23.6953C166.258 24.0957 166.468 24.4424 166.888 24.7354C167.317 25.0283 168.25 25.4629 169.686 26.0391C170.965 26.5566 171.902 27.04 172.498 27.4893C173.094 27.9385 173.533 28.4561 173.816 29.042C174.1 29.6279 174.241 30.3262 174.241 31.1367Z" fill="white"/>
</g>
<g filter="url(#filter1_d_143_2)">
<path d="M23.954 4.00507L6.01238 4.00002L6 47.9931L23.9417 47.9982" stroke="white" stroke-width="4"/>
</g>
<path d="M29.1578 12.757L29.1578 4.00232L21.0025 4.00002" stroke="white" stroke-width="4"/>
<path d="M29.1552 39.0023L29.1553 47.9796L21 47.9773" stroke="white" stroke-width="4"/>
<defs>
<filter id="filter0_d_143_2" x="9.38965" y="11.207" width="168.852" height="38" filterUnits="userSpaceOnUse" color-interpolation-filters="sRGB">
<feFlood flood-opacity="0" result="BackgroundImageFix"/>
<feColorMatrix in="SourceAlpha" type="matrix" values="0 0 0 0 0 0 0 0 0 0 0 0 0 0 0 0 0 0 127 0" result="hardAlpha"/>
<feOffset dy="2"/>
<feGaussianBlur stdDeviation="2"/>
<feComposite in2="hardAlpha" operator="out"/>
<feColorMatrix type="matrix" values="0 0 0 0 0.479167 0 0 0 0 0.479167 0 0 0 0 0.479167 0 0 0 0.25 0"/>
<feBlend mode="normal" in2="BackgroundImageFix" result="effect1_dropShadow_143_2"/>
<feBlend mode="normal" in="SourceGraphic" in2="effect1_dropShadow_143_2" result="shape"/>
</filter>
<filter id="filter1_d_143_2" x="-0.00056076" y="-0.000549316" width="27.9552" height="55.9987" filterUnits="userSpaceOnUse" color-interpolation-filters="sRGB">
<feFlood flood-opacity="0" result="BackgroundImageFix"/>
<feColorMatrix in="SourceAlpha" type="matrix" values="0 0 0 0 0 0 0 0 0 0 0 0 0 0 0 0 0 0 127 0" result="hardAlpha"/>
<feOffset dy="2"/>
<feGaussianBlur stdDeviation="2"/>
<feComposite in2="hardAlpha" operator="out"/>
<feColorMatrix type="matrix" values="0 0 0 0 0 0 0 0 0 0 0 0 0 0 0 0 0 0 0.25 0"/>
<feBlend mode="normal" in2="BackgroundImageFix" result="effect1_dropShadow_143_2"/>
<feBlend mode="normal" in="SourceGraphic" in2="effect1_dropShadow_143_2" result="shape"/>
</filter>
</defs>
</svg>
